HIERARCHY
ROOT Hips
{
  OFFSET 0 0 0
  CHANNELS 6 Xposition Yposition Zposition Zrotation Yrotation Xrotation
  JOINT LeftThigh
  {
    OFFSET 8.409438 0 -5.917753
    CHANNELS 3 Zrotation Yrotation Xrotation
    JOINT LeftLeg
    {
      OFFSET 0 0 -42.358652
      CHANNELS 3 Zrotation Yrotation Xrotation
      JOINT LeftFoot
      {
        OFFSET 0 0 -39.357303
        CHANNELS 3 Zrotation Yrotation Xrotation
      }
    }
  }
  JOINT RightThigh
  {
    OFFSET -8.409438 0 -5.917753
    CHANNELS 3 Zrotation Yrotation Xrotation
    JOINT RightLeg
    {
      OFFSET 0 0 -42.358652
      CHANNELS 3 Zrotation Yrotation Xrotation
      JOINT RightFoot
      {
        OFFSET 0 0 -39.357303
        CHANNELS 3 Zrotation Yrotation Xrotation
      }
    }
  }
  JOINT SpineLow
  {
    OFFSET 0 0 4.719101
    CHANNELS 3 Zrotation Yrotation Xrotation
    JOINT SpineMid
    {
      OFFSET 0 0 12.899191
      CHANNELS 3 Zrotation Yrotation Xrotation
      JOINT Chest
      {
        OFFSET 0 0 12.899191
        CHANNELS 3 Zrotation Yrotation Xrotation
        JOINT LeftShoulder
        {
          OFFSET 7.550562 1.41573 9.438202
          CHANNELS 3 Zrotation Yrotation Xrotation
          JOINT LeftArm
          {
            OFFSET 9.155056 0 4.247191
            CHANNELS 3 Zrotation Yrotation Xrotation
            JOINT LeftForearm
            {
              OFFSET 0 0 25.771955
              CHANNELS 3 Zrotation Yrotation Xrotation
              JOINT LeftHand
              {
                OFFSET 0 0 25.197169
                CHANNELS 3 Zrotation Yrotation Xrotation
              }
            }
          }
        }
        JOINT RightShoulder
        {
          OFFSET -7.550562 1.41573 9.438202
          CHANNELS 3 Zrotation Yrotation Xrotation
          JOINT RightArm
          {
            OFFSET -9.155056 0 4.247191
            CHANNELS 3 Zrotation Yrotation Xrotation
            JOINT RightForearm
            {
              OFFSET 0 0 -25.771955
              CHANNELS 3 Zrotation Yrotation Xrotation
              JOINT RightHand
              {
                OFFSET 0 0 -25.197169
                CHANNELS 3 Zrotation Yrotation Xrotation
              }
            }
          }
        }
        JOINT Neck
        {
          OFFSET 0 0 15.101124
          CHANNELS 3 Zrotation Yrotation Xrotation
          JOINT Head
          {
            OFFSET 0 0 11.325843
            CHANNELS 3 Zrotation Yrotation Xrotation
            End Site
            {
              OFFSET 0 0 14.157303
            }
          }
        }
      }
    }
  }
}
MOTION
Frames: 8
Frame Time: 0.0
0.0  93.25843  0.0  -2.388526  -29.806707  -92.032562  28.103855  -19.334418  6.69525  2.458137  0.404313  8.016802  3.04489  1.057999  0.717579  -2.95637  0.019048  -19.575599  -2.741589  12.057976  19.517997  7.155403  2.054175  -0.390201  -1.547911  -1.085594  0.539823  -4.25764  -2.931229  1.545293  -4.257639  -2.931229  1.545293  -24.766508  22.804128  -5.689818  131.073608  66.434885  -166.637612  13.470575  -8.842695  40.249351  87.318452  -20.68562  -4.201315  -12.294114  4.873296  20.457474  52.755579  3.487362  32.283789  -37.442607  19.299562  -105.782858  84.051939  -8.392843  5.988393  12.673961  -0.241507  3.11028  9.506978  -0.116676  2.338909  
0.0  93.25843  0.0  -1.848516  -31.29706  -92.70682  28.877321  -19.411384  7.170497  2.219451  0.715932  8.584049  3.070548  1.12709  0.896123  -2.26911  0.051644  -19.759789  -1.996767  12.493918  20.702176  7.085036  2.225394  -0.508591  -1.34528  -1.014724  0.6004  -3.704087  -2.73905  1.697906  -3.704086  -2.73905  1.697906  -24.247573  22.880494  -5.584234  132.758451  66.132521  -164.891179  11.973633  -8.749949  40.509857  86.867478  -21.086934  -4.125637  -11.664446  4.717783  21.05907  52.087997  3.263163  30.934793  -39.23765  20.761691  -106.708766  83.867523  -5.560693  3.053158  12.872489  -0.194809  3.150097  9.655665  -0.079784  2.367921  
0.0  93.25843  0.0  -1.325081  -32.133596  -93.150332  28.732678  -19.294657  7.488566  2.4358  1.029613  9.397621  3.027271  1.155412  0.994252  -2.254741  -0.006251  -20.148299  -1.175234  12.946189  21.793582  7.258177  2.354599  -0.494459  -1.225234  -0.953638  0.620681  -3.374859  -2.574251  1.745209  -3.374859  -2.574251  1.745209  -23.804599  22.953396  -5.477918  134.726975  65.810032  -162.960418  10.629831  -8.70761  40.997633  86.460512  -21.378474  -4.138635  -11.001477  4.405057  21.541345  51.420977  3.266369  29.844834  -40.563962  21.65795  -107.572754  83.752818  -3.129388  0.287309  13.046255  -0.093184  3.173445  9.785486  -0.002127  2.383362  
0.0  93.25843  0.0  -0.838549  -33.170718  -93.729675  28.187898  -19.233016  7.751661  3.29961  1.401496  10.677745  2.859705  1.105975  0.915838  -2.188186  -0.162416  -20.283227  1.13245  12.945962  23.309794  7.001384  2.576856  -0.607276  -1.080034  -0.912339  0.659659  -2.978078  -2.463532  1.84424  -2.978078  -2.463532  1.84424  -22.125805  23.65561  -5.135415  134.825941  65.591661  -161.964001  8.526448  -8.463602  39.969157  86.681735  -23.407837  -3.589833  -10.156662  4.025712  21.857833  50.813174  3.497192  29.020422  -41.607594  22.000523  -108.278212  83.6533  -1.320915  -2.313632  13.234482  0.06522  3.209298  9.925844  0.118502  2.406899  
0.0  93.25843  0.0  -0.379602  -33.57675  -94.174485  27.31125  -19.158774  7.948189  3.98108  1.763669  11.810022  2.796415  1.100979  0.952677  -2.765676  -0.29113  -20.437788  2.405078  13.234578  24.30913  6.970504  2.696541  -0.669196  -0.984898  -0.876007  0.680153  -2.717591  -2.366096  1.895206  -2.717592  -2.366096  1.895206  -21.676579  23.99443  -5.007564  136.909426  65.212134  -159.885926  7.517223  -8.673314  40.699208  86.07963  -23.669108  -3.432336  -9.444089  3.520849  22.059346  50.332777  4.010875  28.307548  -42.14431  21.662993  -108.611025  83.67166  -0.025092  -4.573708  13.275618  0.219482  3.236676  9.955873  0.235079  2.424093  
0.0  93.25843  0.0  0.012138  -33.921102  -94.655434  26.658502  -19.13372  8.130966  4.851088  2.013295  13.144101  2.449257  1.120242  0.873449  -3.962329  -0.647223  -20.415282  4.824523  13.425425  25.443551  6.593849  2.781689  -0.895906  -0.922106  -0.864039  0.701005  -2.546271  -2.334405  1.949505  -2.546271  -2.334405  1.949506  -20.781894  24.636662  -4.759097  142.65266  64.172392  -156.559062  8.00173  -9.183361  43.7174  85.38498  -24.01048  -3.162513  -9.111183  3.030653  21.877999  50.65913  4.674598  28.074814  -42.042397  20.891099  -108.406921  83.460369  1.253214  -6.375948  13.342392  0.416652  3.312212  10.004844  0.385051  2.47645  
0.0  93.25843  0.0  0.343226  -33.706377  -94.911336  25.601931  -19.027304  7.915707  5.404214  2.296597  14.339051  2.339409  1.128295  0.993819  -4.92082  -0.662661  -20.391567  5.641121  13.811009  26.021326  6.81398  2.807296  -0.946554  -0.911495  -0.855607  0.689162  -2.516582  -2.312133  1.916424  -2.516582  -2.312133  1.916424  -19.99787  25.296825  -4.458563  144.924111  63.431753  -154.180784  7.174564  -9.568664  44.607125  84.612325  -24.467532  -2.781012  -8.090169  2.528358  22.362643  50.464712  5.82542  27.184294  -41.390472  19.613883  -107.711675  83.318677  2.776362  -7.51971  13.352508  0.618828  3.424573  10.011193  0.539288  2.556329  
0.0  93.25843  0.0  0.594621  -33.101023  -95.124233  24.582334  -18.980427  7.572132  5.679048  2.562731  15.471695  2.315108  1.106615  1.176004  -5.885809  -0.565886  -20.242113  6.023443  14.145472  26.447834  6.754133  2.699892  -0.993471  -0.946309  -0.864467  0.674462  -2.611527  -2.335909  1.877805  -2.611527  -2.335909  1.877805  -19.052494  26.029308  -4.185027  146.998117  62.416524  -151.908268  6.182726  -9.900372  45.621475  83.811526  -24.990759  -2.34614  -6.706954  2.035054  23.204709  50.198737  7.306725  26.093645  -40.636251  18.153927  -107.076681  83.099426  4.203496  -7.810098  13.355554  0.867906  3.573724  10.01181  0.729489  2.662779  
